<svg width="90" height="90" viewBox="0 0 90 90" fill="none" xmlns="http://www.w3.org/2000/svg">
<path fill-rule="evenodd" clip-rule="evenodd" d="M45 5.5C23.1848 5.5 5.5 23.1848 5.5 45C5.5 66.8152 23.1848 84.5 45 84.5C66.8152 84.5 84.5 66.8152 84.5 45C84.5 23.1848 66.8152 5.5 45 5.5ZM0.5 45C0.5 20.4233 20.4233 0.5 45 0.5C69.5767 0.5 89.5 20.4233 89.5 45C89.5 69.5767 69.5767 89.5 45 89.5C20.4233 89.5 0.5 69.5767 0.5 45Z" fill="#FC5050"/>
<path fill-rule="evenodd" clip-rule="evenodd" d="M31.1921 55.5782C34.3557 53.2774 39.0612 50.9 45 50.9C50.9388 50.9 55.6443 53.2774 58.8079 55.5782C60.3945 56.7321 61.6209 57.8858 62.4565 58.7578C62.8754 59.1948 63.1991 59.5643 63.4237 59.8319C63.5361 59.9658 63.624 60.0746 63.6868 60.1539C63.7182 60.1936 63.7434 60.226 63.7623 60.2505L63.7859 60.2813L63.7941 60.2922L63.7974 60.2965L63.7988 60.2984C63.7994 60.2992 63.8 60.3 61.8 61.8L63.8 60.3C64.6284 61.4046 64.4046 62.9716 63.3 63.8C62.1974 64.627 60.6339 64.4054 59.8044 63.3058C59.8037 63.3049 59.803 63.304 59.8023 63.303L59.8036 63.3048L59.8049 63.3065C59.805 63.3066 59.8048 63.3064 59.8044 63.3058C59.8037 63.305 59.8026 63.3035 59.8009 63.3014C59.7953 63.2941 59.7839 63.2793 59.7666 63.2574C59.732 63.2137 59.6742 63.142 59.5939 63.0463C59.4329 62.8545 59.1824 62.5677 58.8466 62.2173C58.1729 61.5143 57.168 60.568 55.8671 59.6219C53.2557 57.7227 49.5612 55.9 45 55.9C40.4388 55.9 36.7443 57.7227 34.1329 59.6219C32.832 60.568 31.8271 61.5143 31.1534 62.2173C30.8176 62.5677 30.5671 62.8545 30.4061 63.0463C30.3258 63.142 30.268 63.2137 30.2334 63.2574C30.2161 63.2793 30.2047 63.2941 30.1991 63.3014C30.1974 63.3035 30.1963 63.3049 30.1957 63.3058M28.2 61.8C26.2 60.3 26.2006 60.2992 26.2012 60.2984L26.2026 60.2965L26.2059 60.2922L26.2141 60.2813L26.2377 60.2505C26.2566 60.226 26.2818 60.1936 26.3132 60.1539C26.376 60.0746 26.4639 59.9658 26.5763 59.8319C26.8009 59.5643 27.1246 59.1948 27.5435 58.7578C28.3791 57.8858 29.6055 56.7321 31.1921 55.5782M28.2 61.8L26.2 60.3C25.3716 61.4046 25.5954 62.9716 26.7 63.8C27.8026 64.627 29.3661 64.4054 30.1957 63.3058C30.1956 63.3058 30.1956 63.3058 30.1956 63.3059L30.1964 63.3048L30.1979 63.3028" fill="#FC5050"/>
<path fill-rule="evenodd" clip-rule="evenodd" d="M28.4 32.4C28.4 30.1909 30.1909 28.4 32.4 28.4H32.442C34.6511 28.4 36.442 30.1909 36.442 32.4C36.442 34.6092 34.6511 36.4 32.442 36.4H32.4C30.1909 36.4 28.4 34.6092 28.4 32.4Z" fill="#FC5050"/>
<path fill-rule="evenodd" clip-rule="evenodd" d="M53.6 32.4C53.6 30.1909 55.3909 28.4 57.6 28.4H57.642C59.8511 28.4 61.642 30.1909 61.642 32.4C61.642 34.6092 59.8511 36.4 57.642 36.4H57.6C55.3909 36.4 53.6 34.6092 53.6 32.4Z" fill="#FC5050"/>
</svg>
